<svg width="43" height="43" viewBox="0 0 43 43" fill="none" xmlns="http://www.w3.org/2000/svg">
<path d="M21.5 3.58334C11.61 3.58334 3.58337 11.61 3.58337 21.5C3.58337 31.39 11.61 39.4167 21.5 39.4167C31.39 39.4167 39.4167 31.39 39.4167 21.5C39.4167 11.61 31.39 3.58334 21.5 3.58334ZM21.5 35.8333C13.5988 35.8333 7.16671 29.4013 7.16671 21.5H11.8609L15.4442 14.3333H27.5559L31.1392 21.5H35.8334C35.8334 29.4013 29.4013 35.8333 21.5 35.8333Z" fill="#222222"/>
<path d="M16.125 25.5312C17.3618 25.5312 18.3645 24.5286 18.3645 23.2917C18.3645 22.0548 17.3618 21.0521 16.125 21.0521C14.8881 21.0521 13.8854 22.0548 13.8854 23.2917C13.8854 24.5286 14.8881 25.5312 16.125 25.5312Z" fill="#222222"/>
<path d="M26.875 25.5312C28.1118 25.5312 29.1145 24.5286 29.1145 23.2917C29.1145 22.0548 28.1118 21.0521 26.875 21.0521C25.6381 21.0521 24.6354 22.0548 24.6354 23.2917C24.6354 24.5286 25.6381 25.5312 26.875 25.5312Z" fill="#222222"/>
</svg>
