<svg width="44" height="43" viewBox="0 0 44 43" fill="none" xmlns="http://www.w3.org/2000/svg">
<g clip-path="url(#clip0_51_39)">
<path d="M22 41.2083C22.7028 41.2083 23.4055 41.1635 24.1083 41.074C24.8111 40.9844 25.5139 40.8649 26.2167 40.7156C28.9055 42.6566 31.8621 43.3512 35.0863 42.7993C38.3105 42.2475 40.7776 40.5675 42.4875 37.7594C43.8625 35.5497 44.3055 33.1757 43.8167 30.6375C43.3278 28.0993 42.1514 25.9642 40.2875 24.2323V24.0979C42.1819 22.3958 43.3583 20.2984 43.8167 17.8056C44.275 15.3128 43.8472 12.9609 42.5333 10.75C41.4028 8.86875 39.8444 7.44258 37.8583 6.4715C35.8722 5.50042 33.7792 5.16478 31.5792 5.46458C30.6014 3.7625 29.2643 2.42651 27.5678 1.45663C25.8714 0.486736 24.0154 0.00119444 22 0C19.9833 0 18.1268 0.485542 16.4303 1.45663C14.7339 2.42771 13.398 3.76369 12.4227 5.46458C10.2227 5.16597 8.1296 5.50221 6.14348 6.47329C4.15737 7.44437 2.59843 8.86994 1.46665 10.75C0.152761 12.9597 -0.275017 15.3116 0.183317 17.8056C0.64165 20.2996 1.81804 22.397 3.71248 24.0979V24.2323C1.84859 25.9642 0.672206 28.0993 0.183317 30.6375C-0.305572 33.1757 0.137483 35.5497 1.51248 37.7594C3.22359 40.5663 5.69126 42.2463 8.91548 42.7993C12.1397 43.3524 15.0957 42.6578 17.7833 40.7156C18.4861 40.8649 19.1889 40.9844 19.8917 41.074C20.5944 41.1635 21.2972 41.2083 22 41.2083ZM22 37.625C17.9055 37.625 14.4375 36.2365 11.5958 33.4594C8.75415 30.6823 7.33332 27.2931 7.33332 23.2917C7.33332 19.9472 8.37221 16.991 10.45 14.4229C12.5278 11.8549 15.1555 10.1826 18.3333 9.40625C18.3333 12.4521 19.426 15.0428 21.6113 17.1785C23.7967 19.3142 26.447 20.3814 29.5625 20.3802C30.7236 20.3802 31.8389 20.216 32.9083 19.8875C33.9778 19.559 34.9555 19.0962 35.8416 18.499C36.1166 19.2455 36.3232 20.0147 36.4613 20.8066C36.5994 21.5985 36.6679 22.4269 36.6667 23.2917C36.6667 27.2931 35.2458 30.6823 32.4041 33.4594C29.5625 36.2365 26.0944 37.625 22 37.625ZM16.5 27.3229C15.8583 27.3229 15.3157 27.1061 14.872 26.6725C14.4283 26.239 14.2071 25.7092 14.2083 25.0833C14.2083 24.4562 14.4302 23.9259 14.8738 23.4923C15.3175 23.0588 15.8595 22.8426 16.5 22.8437C17.1417 22.8437 17.6843 23.0605 18.128 23.4941C18.5717 23.9277 18.7929 24.4574 18.7917 25.0833C18.7917 25.7104 18.5698 26.2407 18.1262 26.6743C17.6825 27.1079 17.1404 27.3241 16.5 27.3229ZM27.5 27.3229C26.8583 27.3229 26.3157 27.1061 25.872 26.6725C25.4283 26.239 25.2071 25.7092 25.2083 25.0833C25.2083 24.4562 25.4302 23.9259 25.8738 23.4923C26.3175 23.0588 26.8595 22.8426 27.5 22.8437C28.1417 22.8437 28.6843 23.0605 29.128 23.4941C29.5717 23.9277 29.7929 24.4574 29.7917 25.0833C29.7917 25.7104 29.5698 26.2407 29.1262 26.6743C28.6825 27.1079 28.1404 27.3241 27.5 27.3229Z" fill="#222222"/>
</g>
<defs>
<clipPath id="clip0_51_39">
<rect width="44" height="43" fill="white"/>
</clipPath>
</defs>
</svg>
